<svg width="1em" height="1em" viewBox="0 0 24 24" fill="currentColor" xmlns="http://www.w3.org/2000/svg">
<path d="M7.5 10.75C7.5 10.3358 7.83579 10 8.25 10H13.25C13.6642 10 14 10.3358 14 10.75C14 11.1642 13.6642 11.5 13.25 11.5H8.25C7.83579 11.5 7.5 11.1642 7.5 10.75Z" />
<path fill-rule="evenodd" clip-rule="evenodd" d="M2.91663 10.75C2.91663 6.42375 6.42375 2.91663 10.75 2.91663C15.0762 2.91663 18.5833 6.42375 18.5833 10.75C18.5833 12.643 17.9118 14.3792 16.7939 15.7334L19.9082 18.8476C20.201 19.1405 20.201 19.6154 19.9082 19.9083C19.6153 20.2012 19.1404 20.2012 18.8475 19.9083L15.7333 16.794C14.3791 17.9118 12.643 18.5833 10.75 18.5833C6.42375 18.5833 2.91663 15.0762 2.91663 10.75ZM10.75 4.41663C7.25217 4.41663 4.41663 7.25217 4.41663 10.75C4.41663 14.2477 7.25217 17.0833 10.75 17.0833C14.2477 17.0833 17.0833 14.2477 17.0833 10.75C17.0833 7.25217 14.2477 4.41663 10.75 4.41663Z" />
</svg>
