<svg width="1em" height="1em" viewBox="0 0 24 24" fill="currentColor" xmlns="http://www.w3.org/2000/svg">
<path d="M3.75 4.5C3.75 4.08579 4.08579 3.75 4.5 3.75H11.9965C12.4108 3.75 12.7465 4.08579 12.7465 4.5C12.7465 4.91421 12.4108 5.25 11.9965 5.25H5.25V18.75H12C12.4142 18.75 12.75 19.0858 12.75 19.5C12.75 19.9142 12.4142 20.25 12 20.25H4.5C4.08579 20.25 3.75 19.9142 3.75 19.5V4.5Z" />
<path d="M15.2197 7.71967C15.5126 7.42678 15.9874 7.42678 16.2803 7.71967L19.9862 11.4255C20.1458 11.5616 20.2477 11.7634 20.2499 11.9891C20.2527 12.1847 20.1795 12.3811 20.0303 12.5303L16.2803 16.2803C15.9874 16.5732 15.5126 16.5732 15.2197 16.2803C14.9268 15.9874 14.9268 15.5126 15.2197 15.2197L17.6928 12.7466H8.66663C8.25241 12.7466 7.91663 12.4108 7.91663 11.9966C7.91663 11.5824 8.25241 11.2466 8.66663 11.2466H17.6859L15.2197 8.78033C14.9268 8.48744 14.9268 8.01256 15.2197 7.71967Z" />
</svg>
