<svg width="1em" height="1em" viewBox="0 0 24 24" fill="currentColor" xmlns="http://www.w3.org/2000/svg">
<path d="M12 3.75C9.34529 3.75 6.98328 5.0047 5.47543 6.9504L5.25 7.19026V5.33337C5.25 4.91916 4.91421 4.58337 4.5 4.58337C4.08579 4.58337 3.75 4.91916 3.75 5.33337L3.75 9.08319C3.75 9.19588 3.77485 9.30294 3.81937 9.39884C3.85107 9.46727 3.89358 9.53182 3.94684 9.58985C3.98508 9.6316 4.02799 9.669 4.07473 9.70123C4.10004 9.7187 4.12616 9.73442 4.15294 9.74841C4.25672 9.80268 4.37477 9.83337 4.5 9.83337H8.25C8.66421 9.83337 9 9.49759 9 9.08337C9 8.66916 8.66421 8.33337 8.25 8.33337H6.23415L6.59347 7.95107C6.61056 7.93289 6.62672 7.91387 6.64191 7.89408C7.87699 6.28502 9.81749 5.25 12 5.25C14.2244 5.25 16.1975 6.32516 17.4284 7.98738C17.6749 8.32026 18.1446 8.39028 18.4775 8.14377C18.8103 7.89726 18.8804 7.42758 18.6339 7.0947C17.1322 5.06692 14.7198 3.75 12 3.75Z" />
<path fill-rule="evenodd" clip-rule="evenodd" d="M6.25 12C6.25 11.5858 6.58579 11.25 7 11.25H19.5C19.9142 11.25 20.25 11.5858 20.25 12V19.5C20.25 19.9142 19.9142 20.25 19.5 20.25H7C6.58579 20.25 6.25 19.9142 6.25 19.5V12ZM7.75 12.75V18.75H18.75V12.75H7.75Z" />
</svg>
