<svg width="1em" height="1em" viewBox="0 0 24 24" fill="currentColor" xmlns="http://www.w3.org/2000/svg">
<path fill-rule="evenodd" clip-rule="evenodd" d="M5 4.75C4.86193 4.75 4.75 4.86193 4.75 5V13.0272L8.36781 10.396C9.06424 9.88955 10.0256 9.96498 10.6345 10.5739L12.4089 12.3482L15.0481 11.1166C15.715 10.8054 16.5053 10.9446 17.0256 11.4649L19.25 13.6893V5C19.25 4.86193 19.1381 4.75 19 4.75H5ZM19.25 15.8107L15.9649 12.5256C15.8906 12.4513 15.7777 12.4314 15.6824 12.4758L13.5375 13.4768L15.5303 15.4697C15.8232 15.7626 15.8232 16.2374 15.5303 16.5303C15.2374 16.8232 14.7626 16.8232 14.4697 16.5303L9.57389 11.6345C9.4869 11.5476 9.34956 11.5368 9.25007 11.6091L4.75 14.8819V19C4.75 19.1381 4.86193 19.25 5 19.25H19C19.1381 19.25 19.25 19.1381 19.25 19V15.8107ZM3.25 5C3.25 4.0335 4.0335 3.25 5 3.25H19C19.9665 3.25 20.75 4.0335 20.75 5V19C20.75 19.9665 19.9665 20.75 19 20.75H5C4.0335 20.75 3.25 19.9665 3.25 19V5Z" />
</svg>
