<svg width="24" height="24" viewBox="0 0 24 24" fill="none" xmlns="http://www.w3.org/2000/svg">
<path d="M6.5 2C4.567 2 3 3.567 3 5.5V18.5C3 20.433 4.567 22 6.5 22H20.5C20.7761 22 21 21.7761 21 21.5V3.5C21 3.22386 20.7761 3 20.5 3C20.2239 3 20 3.22386 20 3.5V21H6.5C5.11929 21 4 19.8807 4 18.5C4 17.1191 5.12529 16 6.5 16H17.4999C17.776 16 18 15.7761 18 15.5V2.5C18 2.22386 17.7761 2 17.5 2H6.5Z" fill="#93A1B1"/>
<path d="M7 18C6.72386 18 6.5 18.2239 6.5 18.5C6.5 18.7761 6.72386 19 7 19H17C17.2761 19 17.5 18.7761 17.5 18.5C17.5 18.2239 17.2761 18 17 18H7Z" fill="#93A1B1"/>
</svg>
