<svg width="24" height="24" viewBox="0 0 24 24" fill="none" xmlns="http://www.w3.org/2000/svg">
<g clip-path="url(#clip0_54_4980)">
<path d="M17.8654 1.59737C18.0607 1.40211 18.3772 1.40211 18.5725 1.59737L22.8151 5.83999C22.9089 5.93376 22.9616 6.06094 22.9616 6.19355C22.9616 6.32616 22.9089 6.45333 22.8151 6.5471L7.2588 22.1035C7.16503 22.1972 7.03784 22.2499 6.90523 22.2499L2.66272 22.2498C2.38658 22.2498 2.16274 22.0259 2.16273 21.7498L2.1626 17.5073C2.16259 17.3747 2.21527 17.2475 2.30904 17.1537L13.6141 5.84864C13.6169 5.84575 13.6197 5.84289 13.6225 5.84005C13.6254 5.83721 13.6282 5.83442 13.6311 5.83166L17.8654 1.59737Z" fill="#93A1B1"/>
</g>
<defs>
<clipPath id="clip0_54_4980">
<rect width="24" height="24" fill="white"/>
</clipPath>
</defs>
</svg>
