<svg width="1em" height="1em" viewBox="0 0 24 24" fill="currentColor" xmlns="http://www.w3.org/2000/svg">
<path fill-rule="evenodd" clip-rule="evenodd" d="M12 9.16663C10.4352 9.16663 9.16669 10.4352 9.16669 12C9.16669 13.5648 10.4352 14.8333 12 14.8333C13.5648 14.8333 14.8334 13.5648 14.8334 12C14.8334 10.4352 13.5648 9.16663 12 9.16663ZM10.6667 12C10.6667 11.2636 11.2637 10.6666 12 10.6666C12.7364 10.6666 13.3334 11.2636 13.3334 12C13.3334 12.7363 12.7364 13.3333 12 13.3333C11.2637 13.3333 10.6667 12.7363 10.6667 12Z" />
<path fill-rule="evenodd" clip-rule="evenodd" d="M12 6.25C9.43773 6.25 7.18517 7.63254 5.62884 8.92257C4.84004 9.57641 4.20355 10.2285 3.76398 10.7171C3.54376 10.9619 3.37182 11.167 3.25375 11.3124C3.19468 11.3852 3.14901 11.4431 3.11744 11.4837C3.10165 11.504 3.08938 11.5201 3.08071 11.5315L3.07042 11.545L3.06732 11.5492L3.06628 11.5505C3.06612 11.5508 3.06559 11.5515 3.66669 12L3.06559 11.5515C2.86705 11.8175 2.86705 12.1825 3.06559 12.4485L3.66669 12C3.06559 12.4485 3.06543 12.4483 3.06559 12.4485L3.06732 12.4508L3.07042 12.455L3.08071 12.4685C3.08938 12.4799 3.10165 12.4959 3.11744 12.5163C3.14901 12.5569 3.19468 12.6148 3.25375 12.6876C3.37182 12.833 3.54376 13.0381 3.76398 13.2829C4.20355 13.7715 4.84004 14.4236 5.62884 15.0774C7.18517 16.3675 9.43773 17.75 12 17.75C14.5623 17.75 16.8149 16.3675 18.3712 15.0774C19.16 14.4236 19.7965 13.7715 20.2361 13.2829C20.4563 13.0381 20.6282 12.833 20.7463 12.6876C20.8054 12.6148 20.851 12.5569 20.8826 12.5163C20.8984 12.4959 20.9107 12.4799 20.9193 12.4685L20.9296 12.455L20.9327 12.4508L20.9338 12.4495C20.9339 12.4492 20.9345 12.4485 20.3334 12L20.9345 12.4485C21.133 12.1825 21.133 11.8175 20.9345 11.5515L20.3334 12C20.9345 11.5515 20.9346 11.5517 20.9345 11.5515L20.9338 11.5505L20.9327 11.5492L20.9296 11.545L20.9193 11.5315C20.9134 11.5237 20.9058 11.5138 20.8966 11.5018C20.8923 11.4962 20.8876 11.4902 20.8826 11.4837C20.851 11.4431 20.8054 11.3852 20.7463 11.3124C20.6282 11.167 20.4563 10.9619 20.2361 10.7171C19.7965 10.2285 19.16 9.57641 18.3712 8.92257C16.8149 7.63254 14.5623 6.25 12 6.25ZM4.87914 12.2796C4.78762 12.1779 4.70559 12.0841 4.63357 12C4.70559 11.9159 4.78762 11.8221 4.87914 11.7204C5.28295 11.2715 5.86685 10.6736 6.58609 10.0774C8.04583 8.86746 9.95993 7.75 12 7.75C14.0401 7.75 15.9542 8.86746 17.414 10.0774C18.1332 10.6736 18.7171 11.2715 19.1209 11.7204C19.2124 11.8221 19.2945 11.9159 19.3665 12C19.2945 12.0841 19.2124 12.1779 19.1209 12.2796C18.7171 12.7285 18.1332 13.3264 17.414 13.9226C15.9542 15.1325 14.0401 16.25 12 16.25C9.95993 16.25 8.04583 15.1325 6.58609 13.9226C5.86685 13.3264 5.28295 12.7285 4.87914 12.2796Z" />
</svg>
