<svg width="1em" height="1em" viewBox="0 0 24 24" fill="currentColor" xmlns="http://www.w3.org/2000/svg">
<path d="M12 3.25C11.8284 3.25 11.6703 3.30761 11.5439 3.40455L7.55 6.4C7.21863 6.64853 7.15147 7.11863 7.4 7.45C7.64853 7.78137 8.11863 7.84853 8.45 7.6L11.25 5.5V15C11.25 15.4142 11.5858 15.75 12 15.75C12.4142 15.75 12.75 15.4142 12.75 15V5.5L15.55 7.6C15.8814 7.84853 16.3515 7.78137 16.6 7.45C16.8485 7.11863 16.7814 6.64853 16.45 6.4L12.4561 3.40455C12.3297 3.30761 12.1716 3.25 12 3.25Z" />
<path d="M4.75 12C4.75 11.5858 4.41421 11.25 4 11.25C3.58579 11.25 3.25 11.5858 3.25 12V18C3.25 19.5188 4.48122 20.75 6 20.75H18C19.5188 20.75 20.75 19.5188 20.75 18V12C20.75 11.5858 20.4142 11.25 20 11.25C19.5858 11.25 19.25 11.5858 19.25 12V18C19.25 18.6904 18.6904 19.25 18 19.25H6C5.30964 19.25 4.75 18.6904 4.75 18V12Z" />
</svg>
