<svg width="1em" height="1em" viewBox="0 0 24 24" fill="currentColor" xmlns="http://www.w3.org/2000/svg">
<g clip-path="url(#clip0_1445_163)">
<path fill-rule="evenodd" clip-rule="evenodd" d="M20 3.00003C20.5523 3.00003 21 3.44774 21 4.00003L21 13C21 13.5523 20.5523 14 20 14C19.4477 14 19 13.5523 19 13L19 6.41424L5.15076 20.2635C4.76023 20.654 4.12707 20.654 3.73654 20.2635C3.34602 19.873 3.34602 19.2398 3.73654 18.8493L17.5858 5.00003L11 5.00003C10.4477 5.00003 10 4.55231 10 4.00003C10 3.44774 10.4477 3.00003 11 3.00003L20 3.00003Z" fill="#333333"/>
</g>
<defs>
<clipPath id="clip0_1445_163">
<rect width="1em" height="1em" fill="white"/>
</clipPath>
</defs>
</svg>
