<svg width="1em" height="1em" viewBox="0 0 24 24" fill="currentColor" xmlns="http://www.w3.org/2000/svg">
<path fill-rule="evenodd" clip-rule="evenodd" d="M12.125 3.04163C10.6292 3.04163 9.41663 4.25419 9.41663 5.74996C9.41663 6.47725 9.7033 7.13759 10.1698 7.62414C8.66053 8.29955 7.56448 9.73287 7.36575 11.44C6.15499 11.7103 5.25 12.7911 5.25 14.0833C5.25 14.8106 5.53663 15.4709 6.00308 15.9574C4.33137 16.7055 3.16663 18.3834 3.16663 20.3333C3.16663 20.6785 3.44645 20.9583 3.79163 20.9583C4.1368 20.9583 4.41663 20.6785 4.41663 20.3333C4.41663 18.3811 5.99617 16.7977 7.94698 16.7916C7.95076 16.7917 7.95455 16.7917 7.95833 16.7917C7.96211 16.7917 7.96588 16.7917 7.96966 16.7916C9.92042 16.7978 11.5 18.3811 11.5 20.3333C11.5 20.6569 11.7459 20.9231 12.0611 20.9551C12.0821 20.9572 12.1034 20.9583 12.125 20.9583L12.133 20.9582C12.1673 20.9578 12.2008 20.9546 12.2335 20.9489C12.527 20.8975 12.75 20.6414 12.75 20.3333C12.75 18.3811 14.3296 16.7977 16.2804 16.7916C16.2841 16.7917 16.2879 16.7917 16.2917 16.7917C16.2955 16.7917 16.2993 16.7917 16.303 16.7916C18.2538 16.7978 19.8333 18.3811 19.8333 20.3333C19.8333 20.6785 20.1132 20.9583 20.4583 20.9583C20.8035 20.9583 21.0833 20.6785 21.0833 20.3333C21.0833 18.3834 19.9186 16.7055 18.2469 15.9574C18.7134 15.4709 19 14.8106 19 14.0833C19 12.7911 18.0951 11.7103 16.8843 11.44C16.6856 9.73283 15.5895 8.29947 14.0801 7.62409C14.5466 7.13755 14.8333 6.47723 14.8333 5.74996C14.8333 4.25419 13.6207 3.04163 12.125 3.04163ZM15.6254 11.4576C15.3643 9.75908 13.8966 8.45837 12.125 8.45837C10.3535 8.45837 8.88573 9.75909 8.62466 11.4576C9.79824 11.7545 10.6667 12.8175 10.6667 14.0833C10.6667 14.8106 10.38 15.4709 9.91356 15.9574C10.8469 16.3751 11.6222 17.0826 12.125 17.9655C12.6278 17.0826 13.4031 16.3751 14.3365 15.9574C13.87 15.4709 13.5834 14.8106 13.5834 14.0833C13.5834 12.8175 14.4518 11.7545 15.6254 11.4576Z" />
</svg>
