<svg width="1em" height="1em" viewBox="0 0 24 24" fill="currentColor" xmlns="http://www.w3.org/2000/svg">
<path d="M18.364 4.17812C17.0644 2.87845 14.9572 2.87845 13.6575 4.17812L10.0117 7.82396C9.71876 8.11686 9.71876 8.59173 10.0116 8.88462C10.3045 9.17752 10.7794 9.17752 11.0723 8.88462L14.7182 5.23878C15.4321 4.5249 16.5895 4.5249 17.3034 5.23878L18.7617 6.69712C19.4756 7.411 19.4756 8.56842 18.7617 9.2823L15.1158 12.9281C14.8229 13.221 14.8229 13.6959 15.1158 13.9888C15.4087 14.2817 15.8836 14.2817 16.1765 13.9888L19.8223 10.343C21.122 9.0433 21.122 6.93613 19.8224 5.63646L18.364 4.17812Z"/>
<path d="M8.88478 11.0721C9.17768 10.7792 9.17768 10.3044 8.88479 10.0115C8.5919 9.71858 8.11703 9.71858 7.82413 10.0115L4.17826 13.6573C2.87858 14.957 2.87857 17.0642 4.17822 18.3638L5.63655 19.8222C6.93621 21.1218 9.04338 21.1218 10.3431 19.8222L13.9889 16.1763C14.2818 15.8834 14.2818 15.4086 13.9889 15.1157C13.696 14.8228 13.2212 14.8228 12.9283 15.1157L9.28241 18.7615C8.56852 19.4754 7.41109 19.4754 6.69722 18.7615L5.23889 17.3032C4.52502 16.5893 4.52503 15.4319 5.23891 14.718L8.88478 11.0721Z" />
<path d="M15.4469 9.61361C15.7398 9.32072 15.7398 8.84584 15.4469 8.55295C15.154 8.26006 14.6791 8.26006 14.3862 8.55295L8.55283 14.3863C8.25993 14.6792 8.25993 15.1541 8.55282 15.447C8.84571 15.7399 9.32059 15.7399 9.61348 15.447L15.4469 9.61361Z" />
</svg>
