<svg width="1em" height="1em" viewBox="0 0 24 24" fill="currentColor" xmlns="http://www.w3.org/2000/svg">
<path fill-rule="evenodd" clip-rule="evenodd" d="M5.75005 3.30005C4.94924 3.30005 4.30005 3.94924 4.30005 4.75005V18.25C4.30005 19.0509 4.94924 19.7 5.75005 19.7H8.50005C8.88665 19.7 9.20005 19.3866 9.20005 19C9.20005 18.6134 8.88665 18.3 8.50005 18.3H5.75005C5.72243 18.3 5.70005 18.2777 5.70005 18.25V4.75005C5.70005 4.72243 5.72243 4.70005 5.75005 4.70005H12.55V7.75005C12.55 8.13665 12.8634 8.45005 13.25 8.45005H16.3V11.125C16.3 11.5116 16.6134 11.825 17 11.825C17.3866 11.825 17.7 11.5116 17.7 11.125V7.75005C17.7 7.569 17.6313 7.40401 17.5185 7.27974L14.1454 3.53177C14.0126 3.38427 13.8235 3.30005 13.625 3.30005H5.75005ZM13.95 5.40755V7.05005H15.4283L13.95 5.40755Z" />
<path fill-rule="evenodd" clip-rule="evenodd" d="M12.05 16C12.05 14.9231 12.9231 14.05 14 14.05C15.077 14.05 15.95 14.9231 15.95 16C15.95 17.077 15.077 17.95 14 17.95C12.9231 17.95 12.05 17.077 12.05 16ZM14 15.45C13.6963 15.45 13.45 15.6963 13.45 16C13.45 16.3038 13.6963 16.55 14 16.55C14.3038 16.55 14.55 16.3038 14.55 16C14.55 15.6963 14.3038 15.45 14 15.45Z" />
<path fill-rule="evenodd" clip-rule="evenodd" d="M14 12.3C12.3756 12.3 10.9677 13.1738 10.0178 13.9611C9.53292 14.363 9.14227 14.7633 8.87256 15.0631C8.73731 15.2135 8.6314 15.3398 8.5582 15.4299C8.52158 15.475 8.49306 15.5112 8.47307 15.5369L8.44952 15.5675L8.44262 15.5766L8.44041 15.5796L8.43961 15.5806C8.43947 15.5808 8.43902 15.5814 9.00005 16L8.43961 15.5806C8.25431 15.829 8.25372 16.1704 8.43902 16.4187L9.00005 16C8.43902 16.4187 8.43889 16.4185 8.43902 16.4187L8.44041 16.4205L8.44262 16.4235L8.44952 16.4326L8.47307 16.4632C8.49306 16.4889 8.52158 16.5251 8.5582 16.5702C8.6314 16.6603 8.73731 16.7866 8.87256 16.937C9.14227 17.2368 9.53292 17.6371 10.0178 18.039C10.9677 18.8263 12.3756 19.7 14 19.7C15.6245 19.7 17.0324 18.8263 17.9823 18.039C18.4672 17.6371 18.8578 17.2368 19.1275 16.937C19.2628 16.7866 19.3687 16.6603 19.4419 16.5702C19.4785 16.5251 19.507 16.4889 19.527 16.4632L19.5506 16.4326L19.5575 16.4235L19.5597 16.4205L19.5605 16.4195C19.5606 16.4193 19.5611 16.4187 19 16L19.5605 16.4195C19.7458 16.1711 19.7464 15.8297 19.5611 15.5814L19 16C19.5611 15.5814 19.5612 15.5816 19.5611 15.5814L19.5597 15.5796L19.5575 15.5766L19.5506 15.5675L19.527 15.5369C19.507 15.5112 19.4785 15.475 19.4419 15.4299C19.3687 15.3398 19.2628 15.2135 19.1275 15.0631C18.8578 14.7633 18.4672 14.363 17.9823 13.9611C17.0324 13.1738 15.6245 12.3 14 12.3ZM10.9112 16.9611C10.4913 16.613 10.1497 16.2633 9.91338 16.0006V15.9995C10.1497 15.7368 10.4913 15.3871 10.9112 15.039C11.771 14.3263 12.863 13.7 14 13.7C15.1371 13.7 16.2291 14.3263 17.0889 15.039C17.5088 15.3871 17.8504 15.7368 18.0867 15.9995V16.0006C17.8504 16.2633 17.5088 16.613 17.0889 16.9611C16.2291 17.6738 15.1371 18.3 14 18.3C12.863 18.3 11.771 17.6738 10.9112 16.9611Z" />
</svg>
