<svg width="1em" height="1em" viewBox="0 0 24 24" fill="currentColor" xmlns="http://www.w3.org/2000/svg">
<path d="M12 3.25C11.5858 3.25 11.25 3.58579 11.25 4V13.5L8.45 11.4C8.11863 11.1515 7.64853 11.2186 7.4 11.55C7.15147 11.8814 7.21863 12.3515 7.55 12.6L11.5439 15.5954C11.6703 15.6924 11.8284 15.75 12 15.75C12.1716 15.75 12.3297 15.6924 12.4561 15.5954L16.45 12.6C16.7814 12.3515 16.8485 11.8814 16.6 11.55C16.3515 11.2186 15.8814 11.1515 15.55 11.4L12.75 13.5V4C12.75 3.58579 12.4142 3.25 12 3.25Z" />
<path d="M4.75 12C4.75 11.5858 4.41421 11.25 4 11.25C3.58579 11.25 3.25 11.5858 3.25 12V18C3.25 19.5188 4.48122 20.75 6 20.75H18C19.5188 20.75 20.75 19.5188 20.75 18V12C20.75 11.5858 20.4142 11.25 20 11.25C19.5858 11.25 19.25 11.5858 19.25 12V18C19.25 18.6904 18.6904 19.25 18 19.25H6C5.30964 19.25 4.75 18.6904 4.75 18V12Z" />
</svg>
