<svg width="1em" height="1em" viewBox="0 0 24 24" fill="currentColor" xmlns="http://www.w3.org/2000/svg">
<path d="M8 10C7.58579 10 7.25 10.3358 7.25 10.75C7.25 11.1642 7.58579 11.5 8 11.5H16C16.4142 11.5 16.75 11.1642 16.75 10.75C16.75 10.3358 16.4142 10 16 10H8Z" />
<path fill-rule="evenodd" clip-rule="evenodd" d="M4 4C3.58579 4 3.25 4.33579 3.25 4.75V16.75C3.25 17.1642 3.58579 17.5 4 17.5H6.85V18.75C6.85 19.0099 6.98459 19.2513 7.2057 19.388C7.42681 19.5246 7.70292 19.5371 7.93541 19.4208L11.7771 17.5H20C20.4142 17.5 20.75 17.1642 20.75 16.75V4.75C20.75 4.33579 20.4142 4 20 4H4ZM4.75 16V5.5H19.25V16H11.6C11.4836 16 11.3687 16.0271 11.2646 16.0792L8.35 17.5365V16.75C8.35 16.3358 8.01421 16 7.6 16H4.75Z" />
</svg>
