<svg width="32" height="32" viewBox="0 0 58 58" fill="currentColor" xmlns="http://www.w3.org/2000/svg">
<path fill-rule="evenodd" clip-rule="evenodd" d="M39.7889 0.500068L52.5 13.5606V55.0001C52.5 55.6904 52.2202 56.3154 51.7678 56.7678C51.3154 57.2202 50.6904 57.5001 50 57.5001H11C10.3096 57.5001 9.68464 57.2202 9.23223 56.7678C8.77982 56.3154 8.5 55.6904 8.5 55.0001V3.00007C8.5 2.30971 8.77982 1.68471 9.23223 1.2323C9.68464 0.77989 10.3096 0.500068 11 0.500068H39.7889Z" fill="white" stroke="#979797"/>
<path d="M47 39.0001H13V41.0001H47V39.0001Z" fill="#C5C5C5"/>
<path d="M26 9.00007H7C5.89543 9.00007 5 9.8955 5 11.0001V30.0001C5 31.1046 5.89543 32.0001 7 32.0001H26C27.1046 32.0001 28 31.1046 28 30.0001V11.0001C28 9.8955 27.1046 9.00007 26 9.00007Z" fill="#5C76B8"/>
<path d="M47 45.0001H13V47.0001H47V45.0001Z" fill="#C5C5C5"/>
<path d="M47 51.0001H13V53.0001H47V51.0001Z" fill="#C5C5C5"/>
<path fill-rule="evenodd" clip-rule="evenodd" d="M40 0.357422V13.3574H53L40 0.357422Z" fill="#979797"/>
<path d="M23.96 16.7601C23.96 16.8667 23.92 17.0001 23.84 17.1601L20.84 24.5401C20.6933 24.9134 20.44 25.1001 20.08 25.1001C19.7733 25.1001 19.54 24.9134 19.38 24.5401L17.04 18.8401L14.64 24.5401C14.48 24.9134 14.2467 25.1001 13.94 25.1001C13.5933 25.1001 13.34 24.9134 13.18 24.5401L10.1 17.1801C10.0333 17.0067 10 16.8667 10 16.7601C10 16.2534 10.3 16.0001 10.9 16.0001C11.22 16.0001 11.4467 16.1734 11.58 16.5201L13.94 22.2801L16.34 16.5801C16.5 16.1934 16.7333 16.0001 17.04 16.0001C17.3467 16.0001 17.58 16.1934 17.74 16.5801L20.08 22.2601L22.36 16.5201C22.5067 16.1734 22.74 16.0001 23.06 16.0001C23.2867 16.0001 23.4933 16.0667 23.68 16.2001C23.8667 16.3467 23.96 16.5334 23.96 16.7601Z" fill="white"/>
</svg>
