<svg width="1em" height="1em" viewBox="0 0 24 24" fill="currentColor" xmlns="http://www.w3.org/2000/svg">
<path d="M9.4321 10.2531C9.84461 10.2156 10.2094 10.5196 10.2469 10.9321L10.7469 16.4321C10.7844 16.8446 10.4804 17.2094 10.0679 17.2469C9.65539 17.2844 9.29058 16.9804 9.25308 16.5679L8.75308 11.0679C8.71558 10.6554 9.01959 10.2906 9.4321 10.2531Z" />
<path d="M13.7531 10.9321C13.7906 10.5196 14.1554 10.2156 14.5679 10.2531C14.9804 10.2906 15.2844 10.6554 15.2469 11.0679L14.7469 16.5679C14.7094 16.9804 14.3446 17.2844 13.9321 17.2469C13.5196 17.2094 13.2156 16.8446 13.2531 16.4321L13.7531 10.9321Z" />
<path fill-rule="evenodd" clip-rule="evenodd" d="M7.73995 3.29686C7.80168 2.9368 8.11385 2.67358 8.47917 2.67358H15.5208C15.8862 2.67358 16.1983 2.9368 16.26 3.29686L16.6949 5.83325H20.125C20.5392 5.83325 20.875 6.16904 20.875 6.58325C20.875 6.99747 20.5392 7.33325 20.125 7.33325H18.5716L17.7468 20.1178C17.7029 20.7975 17.1389 21.3263 16.4578 21.3263H7.54295C6.86187 21.3263 6.29781 20.7975 6.25396 20.1178L5.42915 7.33325H3.875C3.46079 7.33325 3.125 6.99747 3.125 6.58325C3.125 6.16904 3.46079 5.83325 3.875 5.83325H7.30514L7.73995 3.29686ZM8.82702 5.83325H15.173L14.8885 4.17358H9.11154L8.82702 5.83325ZM6.93227 7.33325L7.73827 19.8263H16.2625L17.0685 7.33325H6.93227Z" />
</svg>
