<svg width="24" height="24" viewBox="0 0 24 24" fill="none" xmlns="http://www.w3.org/2000/svg">
<path fill-rule="evenodd" clip-rule="evenodd" d="M2 2.5C1.72386 2.5 1.5 2.72386 1.5 3V18C1.5 18.2761 1.72386 18.5 2 18.5H6V20.5C6 20.6733 6.08973 20.8342 6.23713 20.9253C6.38454 21.0164 6.56861 21.0247 6.72361 20.9472L11.618 18.5H22C22.2761 18.5 22.5 18.2761 22.5 18V3C22.5 2.72386 22.2761 2.5 22 2.5H2ZM5.25 13C5.25 12.5858 5.58579 12.25 6 12.25H13C13.4142 12.25 13.75 12.5858 13.75 13C13.75 13.4142 13.4142 13.75 13 13.75H6C5.58579 13.75 5.25 13.4142 5.25 13ZM6 6.75C5.58579 6.75 5.25 7.08579 5.25 7.5C5.25 7.91421 5.58579 8.25 6 8.25H18C18.4142 8.25 18.75 7.91421 18.75 7.5C18.75 7.08579 18.4142 6.75 18 6.75H6Z" fill="#93A1B1"/>
</svg>
