<svg width="1em" height="27" viewBox="0 0 24 27" fill="currentColor" xmlns="http://www.w3.org/2000/svg">
<path d="M12.5201 13.9219C12.2272 14.2363 12.2272 14.7461 12.5201 15.0605C12.8129 15.3749 13.2878 15.3749 13.5807 15.0605C15.227 13.2932 15.2831 10.4358 13.6462 8.67865C13.6349 8.66647 13.6233 8.65476 13.6114 8.64353C13.6015 8.63152 13.5911 8.61976 13.5804 8.60826L9.01042 3.70239C7.37352 1.94519 4.7117 2.00542 3.06545 3.77266C1.41927 5.53989 1.3631 8.39731 3.00001 10.1545L6.96766 14.4138C7.26055 14.7282 7.73543 14.7282 8.02832 14.4138C8.32121 14.0994 8.32121 13.5896 8.02832 13.2752L4.06067 9.01592C3.03618 7.91614 3.03871 6.07864 4.12613 4.91125C5.21356 3.7439 6.92526 3.74121 7.94976 4.84101L12.5198 9.74687C12.5311 9.75905 12.5427 9.77076 12.5546 9.782C12.5645 9.794 12.5748 9.80576 12.5856 9.81726C13.61 10.917 13.6075 12.7545 12.5201 13.9219Z" />
<path d="M11.4295 12.7514C11.7224 12.437 11.7224 11.9272 11.4295 11.6128C11.1366 11.2984 10.6617 11.2984 10.3688 11.6128C8.72259 13.38 8.66648 16.2375 10.3033 17.9946C10.3147 18.0068 10.3263 18.0185 10.3382 18.0297C10.3481 18.0417 10.3584 18.0535 10.3691 18.065L14.9391 22.9709C16.576 24.7281 19.2378 24.6679 20.8841 22.9006C22.5303 21.1334 22.5865 18.276 20.9495 16.5187L16.9819 12.2595C16.689 11.9451 16.2141 11.9451 15.9212 12.2595C15.6283 12.5739 15.6283 13.0837 15.9212 13.3981L19.8889 17.6573C20.9134 18.7571 20.9108 20.5946 19.8234 21.762C18.736 22.9294 17.0243 22.9321 15.9998 21.8323L11.4298 16.9264C11.4184 16.9142 11.4068 16.9025 11.395 16.8913C11.385 16.8793 11.3747 16.8675 11.364 16.856C10.3396 15.7563 10.342 13.9188 11.4295 12.7514Z" />
</svg>
