<svg width="1em" height="1em" viewBox="0 0 24 24" fill="currentColor" xmlns="http://www.w3.org/2000/svg">
<path d="M11.5 8.25C11.5 7.83579 11.1642 7.5 10.75 7.5C10.3358 7.5 10 7.83579 10 8.25V10.0042L8.25549 10.0065C7.84128 10.007 7.50593 10.3433 7.50647 10.7575C7.50701 11.1717 7.84323 11.507 8.25745 11.5065L10 11.5042V13.25C10 13.6642 10.3358 14 10.75 14C11.1642 14 11.5 13.6642 11.5 13.25V11.5023L13.2509 11.5C13.6652 11.4995 14.0005 11.1632 14 10.749C13.9994 10.3348 13.6632 9.99946 13.249 10L11.5 10.0023V8.25Z" />
<path fill-rule="evenodd" clip-rule="evenodd" d="M10.75 2.91663C6.42375 2.91663 2.91663 6.42375 2.91663 10.75C2.91663 15.0762 6.42375 18.5833 10.75 18.5833C12.643 18.5833 14.3791 17.9118 15.7333 16.794L18.8475 19.9083C19.1404 20.2012 19.6153 20.2012 19.9082 19.9083C20.201 19.6154 20.201 19.1405 19.9082 18.8476L16.7939 15.7334C17.9118 14.3792 18.5833 12.643 18.5833 10.75C18.5833 6.42375 15.0762 2.91663 10.75 2.91663ZM4.41663 10.75C4.41663 7.25217 7.25217 4.41663 10.75 4.41663C14.2477 4.41663 17.0833 7.25217 17.0833 10.75C17.0833 14.2477 14.2477 17.0833 10.75 17.0833C7.25217 17.0833 4.41663 14.2477 4.41663 10.75Z" />
</svg>
