<svg width="1em" height="1em" viewBox="0 0 24 24" fill="currentColor" xmlns="http://www.w3.org/2000/svg">
<path fill-rule="evenodd" clip-rule="evenodd" d="M12 3.25C9.86759 3.25 8.13892 4.97868 8.13892 7.11111C8.13892 9.24354 9.86759 10.9722 12 10.9722C14.1325 10.9722 15.8611 9.24354 15.8611 7.11111C15.8611 4.97868 14.1325 3.25 12 3.25ZM9.63892 7.11111C9.63892 5.80711 10.696 4.75 12 4.75C13.304 4.75 14.3611 5.80711 14.3611 7.11111C14.3611 8.41511 13.304 9.47221 12 9.47221C10.696 9.47221 9.63892 8.41511 9.63892 7.11111Z" />
<path fill-rule="evenodd" clip-rule="evenodd" d="M9.65623 13.0277C8.68827 13.0277 7.91607 13.0277 7.29255 13.0786C6.65327 13.1309 6.10454 13.2404 5.6009 13.497C4.79074 13.9098 4.13206 14.5685 3.71928 15.3786C3.46266 15.8822 3.35316 16.431 3.30093 17.0702C3.24999 17.6938 3.24999 18.466 3.25 19.4339V19.9999C3.25 20.4141 3.58579 20.7499 4 20.7499H20C20.4142 20.7499 20.75 20.4141 20.75 19.9999V19.4339C20.75 18.466 20.75 17.6938 20.6991 17.0703C20.6468 16.431 20.5374 15.8822 20.2808 15.3786C19.868 14.5685 19.2093 13.9098 18.3991 13.497C17.8955 13.2404 17.3467 13.1309 16.7075 13.0786C16.0839 13.0277 15.3117 13.0277 14.3438 13.0277H9.65623ZM5.05579 16.0596C5.32477 15.5317 5.75396 15.1025 6.28186 14.8335H17.7181C18.246 15.1025 18.6753 15.5317 18.9442 16.0596C19.0751 16.3165 19.1594 16.6459 19.2041 17.1924C19.2461 17.707 19.2497 18.3553 19.25 19.2499H4.75003C4.75033 18.3553 4.7539 17.707 4.79595 17.1924C4.8406 16.6459 4.92487 16.3165 5.05579 16.0596ZM7.41469 14.5737C6.86818 14.6183 6.5388 14.7026 6.28186 14.8335H17.7181C17.4612 14.7026 17.1318 14.6183 16.5853 14.5737C16.03 14.5283 15.3191 14.5277 14.3111 14.5277H9.68889C8.68087 14.5277 7.96996 14.5283 7.41469 14.5737Z" />
</svg>
