<svg width="24" height="24" viewBox="0 0 24 24" fill="none" xmlns="http://www.w3.org/2000/svg">
<g clip-path="url(#clip0_54_4982)">
<path fill-rule="evenodd" clip-rule="evenodd" d="M1.5 3C1.5 2.72386 1.72386 2.5 2 2.5H22C22.2761 2.5 22.5 2.72386 22.5 3V18C22.5 18.2761 22.2761 18.5 22 18.5H18V20.5C18 20.6733 17.9103 20.8342 17.7629 20.9253C17.6155 21.0164 17.4314 21.0247 17.2764 20.9472L12.382 18.5H2C1.72386 18.5 1.5 18.2761 1.5 18V3ZM17.9451 11.3623C18.1452 11.172 18.1531 10.8556 17.9628 10.6554C17.7726 10.4553 17.4561 10.4474 17.256 10.6377C16.087 11.7493 14.1844 12.5 12 12.5C9.8727 12.5 8.01148 11.7879 6.8357 10.7227C6.63104 10.5373 6.31485 10.5529 6.12945 10.7576C5.94405 10.9622 5.95966 11.2784 6.16431 11.4638C7.5522 12.7211 9.66538 13.5 12 13.5C14.3959 13.5 16.5599 12.6796 17.9451 11.3623Z" fill="#93A1B1"/>
</g>
<defs>
<clipPath id="clip0_54_4982">
<rect width="24" height="24" fill="white"/>
</clipPath>
</defs>
</svg>
