<svg width="1em" height="1em" viewBox="0 0 24 24" fill="currentColor" xmlns="http://www.w3.org/2000/svg">
<path fill-rule="evenodd" clip-rule="evenodd" d="M16.9869 3.96979C16.8462 3.82903 16.6553 3.74996 16.4563 3.75C16.2573 3.75004 16.0665 3.82918 15.9258 3.96999L7.30285 12.6033C7.16239 12.7439 7.0835 12.9345 7.0835 13.1333V16.1667C7.0835 16.5809 7.41928 16.9167 7.8335 16.9167H10.8823C11.0813 16.9167 11.2721 16.8376 11.4128 16.6969L20.0306 8.07526C20.3233 7.78239 20.3233 7.30769 20.0306 7.01483L16.9869 3.96979ZM8.5835 13.4437L16.4567 5.56109L18.4397 7.54504L10.5716 15.4167H8.5835V13.4437Z" />
<path d="M5.25 5.33333C5.25 5.28731 5.28731 5.25 5.33333 5.25H11.1667C11.5809 5.25 11.9167 4.91421 11.9167 4.5C11.9167 4.08579 11.5809 3.75 11.1667 3.75H5.33333C4.45888 3.75 3.75 4.45888 3.75 5.33333V18.6667C3.75 19.5411 4.45889 20.25 5.33333 20.25H18.6667C19.5411 20.25 20.25 19.5411 20.25 18.6667V12.8333C20.25 12.4191 19.9142 12.0833 19.5 12.0833C19.0858 12.0833 18.75 12.4191 18.75 12.8333V18.6667C18.75 18.7127 18.7127 18.75 18.6667 18.75H5.33333C5.2873 18.75 5.25 18.7127 5.25 18.6667V5.33333Z" />
</svg>
