<svg width="1em" height="1em" viewBox="0 0 24 24" fill="currentColor" xmlns="http://www.w3.org/2000/svg">
<path d="M15.0569 12.7331C15.3496 13.0262 15.3494 13.5011 15.0563 13.7938L12.5678 16.2795C12.4303 16.4387 12.2269 16.5395 12 16.5395L11.995 16.5395C11.8039 16.5389 11.613 16.4658 11.4671 16.3201L8.9436 13.7995C8.65054 13.5067 8.65028 13.0318 8.94301 12.7388C9.23574 12.4457 9.71061 12.4455 10.0037 12.7382L11.25 13.9831V9.89478C11.25 9.48056 11.5858 9.14478 12 9.14478C12.4142 9.14478 12.75 9.48056 12.75 9.89478V13.9774L13.9962 12.7326C14.2893 12.4398 14.7642 12.4401 15.0569 12.7331Z" />
<path fill-rule="evenodd" clip-rule="evenodd" d="M3.25 4.84211C3.25 3.96281 3.96281 3.25 4.84211 3.25H9.89474C10.1173 3.25 10.3284 3.34887 10.4709 3.51986L12.3513 5.77632H19.1579C20.0372 5.77632 20.75 6.48911 20.75 7.36842V18.3158C20.75 19.1951 20.0372 19.9079 19.1579 19.9079H4.84211C3.96282 19.9079 3.25 19.1951 3.25 18.3158V4.84211ZM4.84211 4.75C4.79124 4.75 4.75 4.79124 4.75 4.84211V18.3158C4.75 18.3667 4.79123 18.4079 4.84211 18.4079H19.1579C19.2088 18.4079 19.25 18.3667 19.25 18.3158V7.36842C19.25 7.31754 19.2088 7.27632 19.1579 7.27632H12C11.7774 7.27632 11.5663 7.17745 11.4238 7.00645L9.54346 4.75H4.84211Z" />
</svg>
