<svg width="24" height="24" viewBox="0 0 24 24" fill="none" xmlns="http://www.w3.org/2000/svg">
<path d="M8.5 3C8.5 2.44772 8.94772 2 9.5 2H14.5C15.0523 2 15.5 2.44772 15.5 3V8C15.5 8.55228 15.0523 9 14.5 9H12.5V12H20C20.2761 12 20.5 12.2239 20.5 12.5V16H22C22.5523 16 23 16.4477 23 17V21C23 21.5523 22.5523 22 22 22H18C17.4477 22 17 21.5523 17 21V17C17 16.4477 17.4477 16 18 16H19.5V13H12.5V16H14C14.5523 16 15 16.4477 15 17V21C15 21.5523 14.5523 22 14 22H10C9.44772 22 9 21.5523 9 21V17C9 16.4477 9.44772 16 10 16H11.5V13H4.5V16H6C6.55228 16 7 16.4477 7 17V21C7 21.5523 6.55228 22 6 22H2C1.44772 22 1 21.5523 1 21V17C1 16.4477 1.44772 16 2 16H3.5V12.5C3.5 12.2239 3.72386 12 4 12H11.5V9H9.5C8.94772 9 8.5 8.55228 8.5 8V3Z" fill="#93A1B1"/>
</svg>
