<svg width="1em" height="1em" viewBox="0 0 24 24" fill="currentColor" xmlns="http://www.w3.org/2000/svg">
<path fill-rule="evenodd" clip-rule="evenodd" d="M4.25 4.125C4.25 3.22754 4.97754 2.5 5.875 2.5H15.0625C15.2751 2.5 15.4777 2.59024 15.62 2.74828L19.5575 7.12328C19.6814 7.261 19.75 7.43972 19.75 7.625V11.5625C19.75 11.9767 19.4142 12.3125 19 12.3125C18.5858 12.3125 18.25 11.9767 18.25 11.5625V7.9128L14.7285 4H5.875C5.80596 4 5.75 4.05596 5.75 4.125V19.875C5.75 19.944 5.80596 20 5.875 20H11.125C11.5392 20 11.875 20.3358 11.875 20.75C11.875 21.1642 11.5392 21.5 11.125 21.5H5.875C4.97754 21.5 4.25 20.7725 4.25 19.875V4.125Z" />
<path fill-rule="evenodd" clip-rule="evenodd" d="M12.125 16.8125C12.125 16.3983 12.4608 16.0625 12.875 16.0625H19C19.4142 16.0625 19.75 16.3983 19.75 16.8125C19.75 17.2267 19.4142 17.5625 19 17.5625H12.875C12.4608 17.5625 12.125 17.2267 12.125 16.8125Z" />
<path fill-rule="evenodd" clip-rule="evenodd" d="M14.625 2.5C15.0392 2.5 15.375 2.83579 15.375 3.25V6.875H19C19.4142 6.875 19.75 7.21079 19.75 7.625C19.75 8.03921 19.4142 8.375 19 8.375H14.625C14.2108 8.375 13.875 8.03921 13.875 7.625V3.25C13.875 2.83579 14.2108 2.5 14.625 2.5Z" />
</svg>
