<svg width="1em" height="1em" viewBox="0 0 24 24" fill="currentColor" xmlns="http://www.w3.org/2000/svg">
<path fill-rule="evenodd" clip-rule="evenodd" d="M12 8.24995C9.92893 8.24995 8.25 9.92888 8.25 11.9999C8.25 14.071 9.92893 15.7499 12 15.7499C14.0711 15.7499 15.75 14.071 15.75 11.9999C15.75 9.92888 14.0711 8.24995 12 8.24995ZM9.75 11.9999C9.75 10.7573 10.7574 9.74995 12 9.74995C13.2426 9.74995 14.25 10.7573 14.25 11.9999C14.25 13.2426 13.2426 14.2499 12 14.2499C10.7574 14.2499 9.75 13.2426 9.75 11.9999Z" />
<path fill-rule="evenodd" clip-rule="evenodd" d="M10.8946 3.00641C10.2226 1.87691 8.75191 1.45643 7.59248 2.1418L5.8679 3.1287C4.59558 3.85603 4.16378 5.48713 4.8906 6.74509L4.89112 6.74599C5.26606 7.39285 5.20721 7.80607 5.09018 8.00916C4.97308 8.21236 4.64521 8.46988 3.9 8.46988C2.43322 8.46988 1.25 9.66824 1.25 11.1199V12.8799C1.25 14.3315 2.43322 15.5299 3.9 15.5299C4.64521 15.5299 4.97308 15.7874 5.09018 15.9906C5.20721 16.1937 5.26606 16.6069 4.89112 17.2538L4.8906 17.2547C4.16378 18.5126 4.59518 20.1435 5.86749 20.8708L7.59257 21.858C8.75199 22.5433 10.2226 22.1228 10.8946 20.9934L10.8991 20.9857L11.0089 20.796C11.3839 20.1491 11.773 19.9924 12.0087 19.9924C12.2434 19.9924 12.6293 20.1474 12.9993 20.7929L13.0009 20.7957L13.1109 20.9857L13.1154 20.9934C13.7874 22.1228 15.258 22.5433 16.4174 21.858L18.1421 20.8711C19.4153 20.1432 19.8444 18.5234 19.1212 17.2578L19.1189 17.2538C18.7439 16.6069 18.8028 16.1937 18.9198 15.9906C19.0369 15.7874 19.3648 15.5299 20.11 15.5299C21.5768 15.5299 22.76 14.3315 22.76 12.8799V11.1199C22.76 9.6531 21.5616 8.46988 20.11 8.46988C19.3648 8.46988 19.0369 8.21236 18.9198 8.00916C18.8028 7.80607 18.7439 7.39285 19.1189 6.74599L19.1194 6.74509C19.8463 5.487 19.4147 3.85592 18.1421 3.1287L16.4175 2.14181C15.2581 1.45643 13.7874 1.8769 13.1154 3.00641L13.1109 3.0141L13.0011 3.20378C12.6261 3.8507 12.237 4.00738 12.0012 4.00738C11.7666 4.00738 11.3807 3.85234 11.0107 3.20689L11.0091 3.20411L10.8991 3.01411L10.8946 3.00641ZM8.35347 3.43444C8.77209 3.18538 9.3358 3.3241 9.60347 3.77005L9.70933 3.95288L9.71021 3.95442C10.2402 4.87812 11.0439 5.50738 12.0012 5.50738C12.958 5.50738 13.764 4.87879 14.2989 3.95599L14.4065 3.77006C14.6742 3.32411 15.2379 3.18538 15.6565 3.43444L15.6675 3.44083L17.3975 4.43083C17.9447 4.74355 18.1336 5.45246 17.8208 5.99432C17.286 6.91731 17.1423 7.92886 17.6202 8.75811C18.0981 9.5874 19.0452 9.96988 20.11 9.96988C20.7384 9.96988 21.26 10.4867 21.26 11.1199V12.8799C21.26 13.5082 20.7432 14.0299 20.11 14.0299C19.0452 14.0299 18.0981 14.4124 17.6202 15.2417C17.1426 16.0704 17.2858 17.0812 17.8198 18.0037C18.1351 18.5577 17.9438 19.2567 17.3979 19.5687L15.6675 20.5589L15.6565 20.5653C15.2379 20.8144 14.6742 20.6757 14.4065 20.2297L14.3007 20.0469L14.3 20.0456C13.77 19.1218 12.9662 18.4924 12.0087 18.4924C11.052 18.4924 10.246 19.121 9.71112 20.0438L9.60345 20.2297C9.33578 20.6757 8.77208 20.8144 8.35347 20.5653L8.34251 20.5589L6.61251 19.5689C6.06532 19.2563 5.87642 18.5475 6.18909 18.0056C6.72398 17.0826 6.86773 16.071 6.38982 15.2417C5.91192 14.4124 4.96479 14.0299 3.9 14.0299C3.26678 14.0299 2.75 13.5082 2.75 12.8799V11.1199C2.75 10.4915 3.26678 9.96988 3.9 9.96988C4.96479 9.96988 5.91192 9.5874 6.38982 8.75811C6.86768 7.92888 6.72401 6.91736 6.18923 5.99439C5.87636 5.45251 6.06483 4.74379 6.6121 4.43106L8.34251 3.44083L8.35347 3.43444Z" />
</svg>
