<svg width="1em" height="1em" viewBox="0 0 24 24" fill="currentColor" xmlns="http://www.w3.org/2000/svg">
<path d="M16.2895 7.73688C17.0743 7.73688 17.7105 7.10068 17.7105 6.31583C17.7105 5.53098 17.0743 4.89478 16.2895 4.89478C15.5046 4.89478 14.8684 5.53098 14.8684 6.31583C14.8684 7.10068 15.5046 7.73688 16.2895 7.73688Z" />
<path fill-rule="evenodd" clip-rule="evenodd" d="M10.4993 5.8399C12.1541 3.82382 14.0867 2.72363 16.2895 2.72363C18.4923 2.72363 20.425 3.82382 22.0798 5.8399C22.3068 6.1165 22.3068 6.51497 22.0798 6.79157C20.425 8.80765 18.4923 9.90784 16.2895 9.90784C14.0867 9.90784 12.1541 8.80765 10.4993 6.79157C10.2722 6.51497 10.2722 6.1165 10.4993 5.8399ZM12.0729 6.31574C13.4058 7.75611 14.8095 8.40784 16.2895 8.40784C17.7695 8.40784 19.1732 7.75611 20.5061 6.31574C19.1732 4.87536 17.7695 4.22363 16.2895 4.22363C14.8095 4.22363 13.4058 4.87536 12.0729 6.31574Z" />
<path fill-rule="evenodd" clip-rule="evenodd" d="M4.75 5C4.75 4.86193 4.86193 4.75 5 4.75H9.5C9.91421 4.75 10.25 4.41421 10.25 4C10.25 3.58579 9.91421 3.25 9.5 3.25H5C4.0335 3.25 3.25 4.0335 3.25 5V19C3.25 19.9665 4.0335 20.75 5 20.75H19C19.9665 20.75 20.75 19.9665 20.75 19V10.5C20.75 10.0858 20.4142 9.75 20 9.75C19.5858 9.75 19.25 10.0858 19.25 10.5V13.6893L17.0256 11.4649C16.5053 10.9446 15.715 10.8054 15.0481 11.1166L12.4089 12.3482L10.6345 10.5739C10.0256 9.96498 9.06424 9.88955 8.36781 10.396L4.75 13.0272V5ZM15.9649 12.5256L19.25 15.8107V19C19.25 19.1381 19.1381 19.25 19 19.25H5C4.86193 19.25 4.75 19.1381 4.75 19V14.8819L9.25007 11.6091C9.34956 11.5368 9.4869 11.5476 9.57389 11.6345L14.4697 16.5303C14.7626 16.8232 15.2374 16.8232 15.5303 16.5303C15.8232 16.2374 15.8232 15.7626 15.5303 15.4697L13.5375 13.4768L15.6824 12.4758C15.7777 12.4314 15.8906 12.4513 15.9649 12.5256Z" />
</svg>
