<svg width="1em" height="1em" viewBox="0 0 24 24" fill="currentColor" xmlns="http://www.w3.org/2000/svg">
<path fill-rule="evenodd" clip-rule="evenodd" d="M7.20001 4.99995C7.20001 4.55812 7.55818 4.19995 8.00001 4.19995H16C16.4418 4.19995 16.8 4.55812 16.8 4.99995V8.99995C16.8 9.44178 16.4418 9.79995 16 9.79995H8.00001C7.55818 9.79995 7.20001 9.44178 7.20001 8.99995V4.99995ZM8.80001 5.79995V8.19995H15.2V5.79995H8.80001Z" fill="#1870F0"/>
<path d="M17.3996 12.2713C17.8414 12.2713 18.1996 11.9132 18.1996 11.4713C18.1996 11.0295 17.8414 10.6713 17.3996 10.6713C16.9578 10.6713 16.5996 11.0295 16.5996 11.4713C16.5996 11.9132 16.9578 12.2713 17.3996 12.2713Z" fill="#121B32"/>
<path fill-rule="evenodd" clip-rule="evenodd" d="M3.20001 8.99995C3.20001 8.55812 3.55818 8.19995 4.00001 8.19995H20C20.4418 8.19995 20.8 8.55812 20.8 8.99995V17C20.8 17.4418 20.4418 17.8 20 17.8H17.8V20C17.8 20.4418 17.4418 20.8 17 20.8H7C6.55817 20.8 6.2 20.4418 6.2 20V17.8H4.00001C3.55818 17.8 3.20001 17.4418 3.20001 17V8.99995ZM7.8 17.0044L7.80001 17L7.8 16.9955V15.8H16.2V19.2H7.8V17.0044ZM6.2 16.2H4.80001V9.79995H19.2V16.2H17.8V15C17.8 14.5582 17.4418 14.2 17 14.2H7C6.55817 14.2 6.2 14.5582 6.2 15V16.2Z" fill="#121B32"/>
</svg>
