<svg width="1em" height="1em" viewBox="0 0 24 24" fill="currentColor" xmlns="http://www.w3.org/2000/svg">
<path d="M9.75002 9C9.75002 7.75736 10.7574 6.75 12 6.75C12.4142 6.75 12.75 6.41421 12.75 6C12.75 5.58579 12.4142 5.25 12 5.25C9.92895 5.25 8.25002 6.92893 8.25002 9C8.25002 9.41421 8.5858 9.75 9.00002 9.75C9.41423 9.75 9.75002 9.41421 9.75002 9Z" />
<path fill-rule="evenodd" clip-rule="evenodd" d="M5.25002 9C5.25002 5.27208 8.27209 2.25 12 2.25C15.7279 2.25 18.75 5.27208 18.75 9V14.7285L19.7233 15.8964C20.6676 17.0296 19.8618 18.75 18.3867 18.75H15.2405C15.1129 20.4281 13.7108 21.75 12 21.75C10.2892 21.75 8.88715 20.4281 8.75949 18.75H5.61332C4.13824 18.75 3.33243 17.0296 4.27676 15.8964L5.25002 14.7285V9ZM12 20.25C11.1184 20.25 10.389 19.5981 10.2677 18.75H13.7323C13.611 19.5981 12.8816 20.25 12 20.25ZM12 3.75C9.10052 3.75 6.75002 6.10051 6.75002 9V14.8412C6.75002 15.1193 6.65254 15.3885 6.47453 15.6021L5.42909 16.8567C5.29892 17.0129 5.40999 17.25 5.61332 17.25H18.3867C18.59 17.25 18.7011 17.0129 18.5709 16.8567L17.5255 15.6021C17.3475 15.3885 17.25 15.1193 17.25 14.8412V9C17.25 6.10051 14.8995 3.75 12 3.75Z" />
<circle cx="19" cy="5" r="3.5" fill="#F53F3F" stroke="white"/>
</svg>
