<svg width="32" height="32" viewBox="0 0 58 58" fill="currentColor" xmlns="http://www.w3.org/2000/svg">
<path fill-rule="evenodd" clip-rule="evenodd" d="M39.7889 0.500068L52.5 13.5606V55.0001C52.5 55.6904 52.2202 56.3154 51.7678 56.7678C51.3154 57.2202 50.6904 57.5001 50 57.5001H11C10.3096 57.5001 9.68464 57.2202 9.23223 56.7678C8.77982 56.3154 8.5 55.6904 8.5 55.0001V3.00007C8.5 2.30971 8.77982 1.68471 9.23223 1.2323C9.68464 0.77989 10.3096 0.500068 11 0.500068H39.7889Z" fill="white" stroke="#979797"/>
<path d="M47 39.0001H13V41.0001H47V39.0001Z" fill="#C5C5C5"/>
<path d="M26 9.00007H7C5.89543 9.00007 5 9.8955 5 11.0001V30.0001C5 31.1046 5.89543 32.0001 7 32.0001H26C27.1046 32.0001 28 31.1046 28 30.0001V11.0001C28 9.8955 27.1046 9.00007 26 9.00007Z" fill="#9C5CB8"/>
<path d="M47 45.0001H13V47.0001H47V45.0001Z" fill="#C5C5C5"/>
<path d="M47 51.0001H13V53.0001H47V51.0001Z" fill="#C5C5C5"/>
<path fill-rule="evenodd" clip-rule="evenodd" d="M40 0.357422V13.3574H53L40 0.357422Z" fill="#979797"/>
<path d="M21.96 14.8201C21.96 15.3667 21.64 15.6401 21 15.6401H17.32V25.9401C17.32 26.5667 17.04 26.8801 16.48 26.8801C15.92 26.8801 15.64 26.5667 15.64 25.9401V15.6401H11.96C11.32 15.6401 11 15.3667 11 14.8201C11 14.2734 11.32 14.0001 11.96 14.0001H21C21.64 14.0001 21.96 14.2734 21.96 14.8201Z" fill="white"/>
</svg>
