<svg width="1em" height="1em" viewBox="0 0 24 24" fill="currentColor" xmlns="http://www.w3.org/2000/svg">
<path d="M4.66663 3C4.25241 3 3.91663 3.33579 3.91663 3.75C3.91663 4.16421 4.25241 4.5 4.66663 4.5H19.3333C19.7475 4.5 20.0833 4.16421 20.0833 3.75C20.0833 3.33579 19.7475 3 19.3333 3H4.66663Z" />
<path d="M10.2387 9.17804C9.94581 8.88515 9.47094 8.88515 9.17804 9.17804C8.88515 9.47094 8.88515 9.94581 9.17804 10.2387L10.6477 11.7084H9.25C8.83579 11.7084 8.5 12.0442 8.5 12.4584C8.5 12.8726 8.83579 13.2084 9.25 13.2084H11.25V14.4584H9.25C8.83579 14.4584 8.5 14.7942 8.5 15.2084C8.5 15.6226 8.83579 15.9584 9.25 15.9584H11.25V17.0417C11.25 17.4559 11.5858 17.7917 12 17.7917C12.4142 17.7917 12.75 17.4559 12.75 17.0417V15.9584H14.75C15.1642 15.9584 15.5 15.6226 15.5 15.2084C15.5 14.7942 15.1642 14.4584 14.75 14.4584H12.75V13.2084H14.75C15.1642 13.2084 15.5 12.8726 15.5 12.4584C15.5 12.0442 15.1642 11.7084 14.75 11.7084H13.3524L14.822 10.2387C15.1149 9.94581 15.1149 9.47094 14.822 9.17804C14.5291 8.88515 14.0543 8.88515 13.7614 9.17804L12 10.9394L10.2387 9.17804Z" />
<path fill-rule="evenodd" clip-rule="evenodd" d="M3.75004 5.75C2.82957 5.75 2.08337 6.49617 2.08337 7.41667V19.3333C2.08337 20.2538 2.82957 21 3.75004 21H20.25C21.1705 21 21.9167 20.2538 21.9167 19.3333V7.41667C21.9167 6.49618 21.1705 5.75 20.25 5.75H3.75004ZM3.58337 7.41667C3.58337 7.32461 3.65799 7.25 3.75004 7.25H20.25C20.3421 7.25 20.4167 7.32461 20.4167 7.41667V19.3333C20.4167 19.4254 20.3421 19.5 20.25 19.5H3.75004C3.65799 19.5 3.58337 19.4254 3.58337 19.3333V7.41667Z" />
</svg>
