<svg width="32" height="32" viewBox="0 0 58 58" fill="currentColor" xmlns="http://www.w3.org/2000/svg">
<path fill-rule="evenodd" clip-rule="evenodd" d="M39.7889 0.500068L52.5 13.5606V55.0001C52.5 55.6904 52.2202 56.3154 51.7678 56.7678C51.3154 57.2202 50.6904 57.5001 50 57.5001H11C10.3096 57.5001 9.68464 57.2202 9.23223 56.7678C8.77982 56.3154 8.5 55.6904 8.5 55.0001V3.00007C8.5 2.30971 8.77982 1.68471 9.23223 1.2323C9.68464 0.77989 10.3096 0.500068 11 0.500068H39.7889Z" fill="white" stroke="#979797"/>
<path d="M47 39.0001H13V41.0001H47V39.0001Z" fill="#C5C5C5"/>
<path d="M26 9.00007H7C5.89543 9.00007 5 9.8955 5 11.0001V30.0001C5 31.1046 5.89543 32.0001 7 32.0001H26C27.1046 32.0001 28 31.1046 28 30.0001V11.0001C28 9.8955 27.1046 9.00007 26 9.00007Z" fill="#B85C5C"/>
<path d="M47 45.0001H13V47.0001H47V45.0001Z" fill="#C5C5C5"/>
<path d="M47 51.0001H13V53.0001H47V51.0001Z" fill="#C5C5C5"/>
<path fill-rule="evenodd" clip-rule="evenodd" d="M40 0.357422V13.3574H53L40 0.357422Z" fill="#979797"/>
<path d="M21.64 17.4601C21.64 18.5134 21.2867 19.4267 20.58 20.2001C19.8733 20.9734 19 21.3601 17.96 21.3601H13.66V25.9401C13.66 26.5667 13.4067 26.8801 12.9 26.8801C12.3 26.8801 12 26.5667 12 25.9401V14.9401C12 14.3134 12.3 14.0001 12.9 14.0001H18.38C19.34 14.0001 20.12 14.3334 20.72 15.0001C21.3333 15.6667 21.64 16.4867 21.64 17.4601ZM19.88 17.4601C19.88 17.0067 19.7067 16.5934 19.36 16.2201C19.0133 15.8334 18.6067 15.6401 18.14 15.6401H13.86C13.7267 15.6401 13.66 15.7001 13.66 15.8201V19.7201H17.7C18.2733 19.7201 18.78 19.4867 19.22 19.0201C19.66 18.5667 19.88 18.0467 19.88 17.4601Z" fill="white"/>
</svg>
