<svg width="24" height="24" viewBox="0 0 24 24" fill="none" xmlns="http://www.w3.org/2000/svg">
<path fill-rule="evenodd" clip-rule="evenodd" d="M2.51782 4.80191C2.51782 4.28828 2.88037 3.84605 3.38403 3.74531L12.0042 2.02128C12.671 1.88792 13.2931 2.39791 13.2931 3.07787V4.45733H13.2931V19.5427H13.2931L13.2931 20.9221C13.2931 21.6021 12.671 22.112 12.0042 21.9787L3.38403 20.2547C2.88037 20.1539 2.51782 19.7117 2.51782 19.1981V4.80191ZM9.95883 8.20226C10.0929 7.96087 10.006 7.65647 9.76457 7.52236C9.52318 7.38825 9.21877 7.47523 9.08467 7.71662L7.3667 10.809L5.64873 7.71662C5.51462 7.47523 5.21022 7.38825 4.96883 7.52236C4.72744 7.65647 4.64046 7.96087 4.77457 8.20226L6.79472 11.8385L4.77457 15.4748C4.64046 15.7162 4.72744 16.0206 4.96883 16.1547C5.21022 16.2888 5.51462 16.2018 5.64873 15.9604L7.3667 12.8681L9.08467 15.9604C9.21877 16.2018 9.52318 16.2888 9.76457 16.1547C10.006 16.0206 10.0929 15.7162 9.95883 15.4748L7.93868 11.8385L9.95883 8.20226ZM14.3706 19.5427V4.45733H20.4047C20.9998 4.45733 21.4822 4.93975 21.4822 5.53485V18.4651C21.4822 19.0602 20.9998 19.5427 20.4047 19.5427H14.3706ZM16.0257 8.76743C16.0257 8.49128 16.2495 8.26743 16.5257 8.26743H19.2195C19.4956 8.26743 19.7195 8.49128 19.7195 8.76743C19.7195 9.04357 19.4956 9.26743 19.2195 9.26743H16.5257C16.2495 9.26743 16.0257 9.04357 16.0257 8.76743ZM16.5257 11.5C16.2495 11.5 16.0257 11.7239 16.0257 12C16.0257 12.2761 16.2495 12.5 16.5257 12.5H19.2195C19.4956 12.5 19.7195 12.2761 19.7195 12C19.7195 11.7239 19.4956 11.5 19.2195 11.5H16.5257ZM16.0257 15.2326C16.0257 14.9564 16.2495 14.7326 16.5257 14.7326H19.2195C19.4956 14.7326 19.7195 14.9564 19.7195 15.2326C19.7195 15.5087 19.4956 15.7326 19.2195 15.7326H16.5257C16.2495 15.7326 16.0257 15.5087 16.0257 15.2326Z" fill="#93A1B1"/>
</svg>
