<svg width="1em" height="1em" viewBox="0 0 24 24" fill="currentColor" xmlns="http://www.w3.org/2000/svg">
<path fill-rule="evenodd" clip-rule="evenodd" d="M9.66104 3.50574C10.0753 3.50574 10.411 3.84153 10.411 4.25574L10.411 6.31814C10.411 6.73236 10.0752 7.06814 9.66102 7.06814C9.2468 7.06814 8.91102 6.73235 8.91102 6.31813L8.91104 4.25573C8.91104 3.84152 9.24683 3.50573 9.66104 3.50574ZM14.0218 4.54276C15.3214 3.2431 17.4286 3.24309 18.7283 4.54276L19.4574 5.27193C20.7571 6.57161 20.7571 8.67878 19.4574 9.97844L15.8115 13.6243C15.5186 13.9172 15.0438 13.9172 14.7509 13.6243C14.458 13.3314 14.458 12.8565 14.7509 12.5636L18.3967 8.91778C19.1106 8.20389 19.1106 7.04647 18.3968 6.33259L17.6676 5.60342C16.9537 4.88955 15.7963 4.88954 15.0824 5.60342L11.4365 9.24927C11.1436 9.54216 10.6688 9.54216 10.3759 9.24927C10.083 8.95637 10.083 8.4815 10.3759 8.18861L14.0218 4.54276ZM6.00068 6.00127C6.29358 5.70838 6.76845 5.70838 7.06134 6.00127L8.51967 7.45961C8.81256 7.7525 8.81256 8.22738 8.51966 8.52027C8.22677 8.81316 7.7519 8.81316 7.459 8.52027L6.00068 7.06193C5.70778 6.76903 5.70779 6.29416 6.00068 6.00127ZM3.50525 9.66186C3.50525 9.24765 3.84104 8.91186 4.25525 8.91186H6.31765C6.73186 8.91186 7.06765 9.24765 7.06765 9.66186C7.06765 10.0761 6.73186 10.4119 6.31765 10.4119H4.25525C3.84104 10.4119 3.50525 10.0761 3.50525 9.66186ZM9.24902 10.3761C9.54191 10.669 9.54191 11.1439 9.24901 11.4368L5.60314 15.0826C4.88925 15.7965 4.88925 16.9539 5.60312 17.6678L6.33228 18.397C7.04615 19.1109 8.20358 19.1109 8.91747 18.397L12.5633 14.7511C12.8562 14.4582 13.3311 14.4582 13.624 14.7511C13.9169 15.044 13.9169 15.5189 13.624 15.8118L9.97813 19.4576C8.67845 20.7573 6.57128 20.7573 5.27162 19.4576L4.54245 18.7285C3.24279 17.4288 3.24282 15.3216 4.54249 14.022L8.18836 10.3761C8.48125 10.0832 8.95613 10.0832 9.24902 10.3761ZM16.9322 14.3389C16.9322 13.9247 17.268 13.5889 17.6822 13.5889H19.7446C20.1588 13.5889 20.4946 13.9247 20.4946 14.3389C20.4946 14.7531 20.1588 15.0889 19.7446 15.0889H17.6822C17.268 15.0889 16.9322 14.7531 16.9322 14.3389ZM15.4802 15.4805C15.7731 15.1876 16.2479 15.1876 16.5408 15.4805L17.9992 16.9388C18.2921 17.2317 18.2921 17.7066 17.9992 17.9995C17.7063 18.2924 17.2314 18.2924 16.9385 17.9995L15.4802 16.5411C15.1873 16.2482 15.1873 15.7734 15.4802 15.4805ZM14.3388 16.9326C14.753 16.9326 15.0888 17.2684 15.0888 17.6826L15.0888 19.745C15.0888 20.1592 14.753 20.495 14.3388 20.495C13.9246 20.495 13.5888 20.1592 13.5888 19.745L13.5888 17.6826C13.5888 17.2684 13.9246 16.9326 14.3388 16.9326Z" />
</svg>
