<svg width="1em" height="1em" viewBox="0 0 24 24" fill="currentColor" xmlns="http://www.w3.org/2000/svg">
<path fill-rule="evenodd" clip-rule="evenodd" d="M17.8617 1.63641C17.721 1.49564 17.5301 1.41657 17.3311 1.41663C17.132 1.41668 16.9412 1.49586 16.8005 1.63672L10.3442 8.10333C10.2039 8.24395 10.125 8.43453 10.125 8.63324V11.6666C10.125 12.0808 10.4608 12.4166 10.875 12.4166H13.9238C14.1228 12.4166 14.3137 12.3375 14.4543 12.1968L20.9055 5.74184C21.1982 5.44897 21.1982 4.97431 20.9054 4.68145L17.8617 1.63641ZM11.625 8.94355L17.3316 3.22783L19.3146 5.21171L13.613 10.9166H11.625V8.94355Z" />
<path fill-rule="evenodd" clip-rule="evenodd" d="M4.75 6C4.75 5.86193 4.86193 5.75 5 5.75H9.5C9.91421 5.75 10.25 5.41421 10.25 5C10.25 4.58579 9.91421 4.25 9.5 4.25H5C4.0335 4.25 3.25 5.0335 3.25 6V20C3.25 20.9665 4.0335 21.75 5 21.75H19C19.9665 21.75 20.75 20.9665 20.75 20V11.5C20.75 11.0858 20.4142 10.75 20 10.75C19.5858 10.75 19.25 11.0858 19.25 11.5V16.6893L17.0256 14.4649C16.5053 13.9446 15.715 13.8054 15.0481 14.1166L12.4089 15.3482L10.6345 13.5739C10.0256 12.965 9.06424 12.8895 8.36781 13.396L4.75 16.0272V6ZM15.9649 15.5256L19.25 18.8107V20C19.25 20.1381 19.1381 20.25 19 20.25H5C4.86193 20.25 4.75 20.1381 4.75 20V17.8819L9.25007 14.6091C9.34956 14.5368 9.4869 14.5476 9.57389 14.6345L13.9697 19.0303C14.2626 19.3232 14.7374 19.3232 15.0303 19.0303C15.3232 18.7374 15.3232 18.2626 15.0303 17.9697L13.5375 16.4768L15.6824 15.4758C15.7777 15.4314 15.8906 15.4513 15.9649 15.5256Z" />
</svg>
