<svg width="24" height="24" viewBox="0 0 24 24" fill="none" xmlns="http://www.w3.org/2000/svg">
	<g clip-path="url(#clip0_55_120)">
		<path d="M2.5 3C2.22386 3 2 3.22386 2 3.5V18C2 18.2761 2.22386 18.5 2.5 18.5H9C10.3807 18.5 11.5 19.6193 11.5 21C11.5 21.2761 11.7239 21.5 12 21.5C12.2761 21.5 12.5 21.2761 12.5 21C12.5 19.6193 13.6193 18.5 15 18.5H21.5C21.7761 18.5 22 18.2761 22 18V3.5C22 3.22386 21.7761 3 21.5 3H16C14.2585 3 12.7481 3.98922 12 5.43639C11.2519 3.98922 9.74147 3 8 3H2.5Z" fill="#93A1B1" />
	</g>
	<defs>
		<clipPath id="clip0_55_120">
			<rect width="24" height="24" fill="white" />
		</clipPath>
	</defs>
</svg>
