<svg width="24" height="24" viewBox="0 0 24 24" fill="none" xmlns="http://www.w3.org/2000/svg">
<path fill-rule="evenodd" clip-rule="evenodd" d="M7.2 1.5C5.18745 1.5 3.5 3.03709 3.5 5V20C3.5 21.3807 4.61928 22.5 6 22.5H20C20.2761 22.5 20.5 22.2761 20.5 22V2C20.5 1.72386 20.2761 1.5 20 1.5H7.2ZM6 21.5C5.17158 21.5 4.5 20.8284 4.5 20C4.5 19.3921 4.86161 18.8687 5.38145 18.6331C5.47686 18.6111 5.58448 18.5915 5.70603 18.5746C6.08982 18.5214 6.57757 18.5 7.2 18.5H19.5V21.5H6ZM11.5 5C9.84316 5 8.5 6.34316 8.5 8C8.5 9.65684 9.84316 11 11.5 11C12.1477 11 12.7479 10.7944 13.2382 10.4453L14.6464 11.8536C14.8417 12.0488 15.1583 12.0488 15.3536 11.8536C15.5488 11.6583 15.5488 11.3417 15.3536 11.1464L13.9453 9.73822C14.2944 9.24794 14.5 8.64769 14.5 8C14.5 6.34316 13.1568 5 11.5 5ZM9.5 8C9.5 6.89544 10.3954 6 11.5 6C12.6046 6 13.5 6.89544 13.5 8C13.5 9.10485 12.6049 10 11.5 10C10.3954 10 9.5 9.10456 9.5 8ZM8.5 14.5C8.22386 14.5 8 14.7239 8 15C8 15.2761 8.22386 15.5 8.5 15.5H15.5C15.7761 15.5 16 15.2761 16 15C16 14.7239 15.7761 14.5 15.5 14.5H8.5Z" fill="#93A1B1"/>
</svg>
