<svg width="32" height="32" viewBox="0 0 58 58" fill="currentColor" xmlns="http://www.w3.org/2000/svg">
<path fill-rule="evenodd" clip-rule="evenodd" d="M39.7889 0.500068L52.5 13.5606V55.0001C52.5 55.6904 52.2202 56.3154 51.7678 56.7678C51.3154 57.2202 50.6904 57.5001 50 57.5001H11C10.3096 57.5001 9.68464 57.2202 9.23223 56.7678C8.77982 56.3154 8.5 55.6904 8.5 55.0001V3.00007C8.5 2.30971 8.77982 1.68471 9.23223 1.2323C9.68464 0.77989 10.3096 0.500068 11 0.500068H39.7889Z" fill="white" stroke="#979797"/>
<path d="M47 39.0001H13V41.0001H47V39.0001Z" fill="#C5C5C5"/>
<mask id="mask0_127_491" style="mask-type:alpha" maskUnits="userSpaceOnUse" x="5" y="9" width="23" height="23">
<path d="M26 9.00007H7C5.89543 9.00007 5 9.8955 5 11.0001V30.0001C5 31.1046 5.89543 32.0001 7 32.0001H26C27.1046 32.0001 28 31.1046 28 30.0001V11.0001C28 9.8955 27.1046 9.00007 26 9.00007Z" fill="white"/>
</mask>
<g mask="url(#mask0_127_491)">
<path d="M26 9.00007H7C5.89543 9.00007 5 9.8955 5 11.0001V30.0001C5 31.1046 5.89543 32.0001 7 32.0001H26C27.1046 32.0001 28 31.1046 28 30.0001V11.0001C28 9.8955 27.1046 9.00007 26 9.00007Z" fill="#5CABB8"/>
<path d="M12 19.0001C13.1046 19.0001 14 18.1046 14 17.0001C14 15.8955 13.1046 15.0001 12 15.0001C10.8954 15.0001 10 15.8955 10 17.0001C10 18.1046 10.8954 19.0001 12 19.0001Z" fill="white"/>
<path d="M4 27.6062C7.9954 23.5584 10.3276 21.5345 10.9966 21.5345C12 21.5345 13.8153 24.3336 15.7178 24.3336C17.6203 24.3336 20.9042 18.5092 23.1562 18.5092C24.6575 18.5092 26.6054 20.1786 29 23.5174" stroke="white" stroke-width="1.4"/>
</g>
<path d="M47 45.0001H13V47.0001H47V45.0001Z" fill="#C5C5C5"/>
<path d="M47 51.0001H13V53.0001H47V51.0001Z" fill="#C5C5C5"/>
<path fill-rule="evenodd" clip-rule="evenodd" d="M40 0.357422V13.3574H53L40 0.357422Z" fill="#979797"/>
</svg>
